<svg width="515" height="457" viewBox="0 0 515 457" fill="none" xmlns="http://www.w3.org/2000/svg">
<path d="M209.435 227.091C209.115 224.392 207.819 222.297 205.546 220.805C203.273 219.314 200.486 218.568 197.183 218.568C194.768 218.568 192.656 218.959 190.844 219.74C189.051 220.521 187.648 221.596 186.636 222.963C185.642 224.33 185.145 225.884 185.145 227.624C185.145 229.08 185.491 230.331 186.184 231.379C186.894 232.409 187.799 233.27 188.9 233.962C190.001 234.637 191.155 235.196 192.363 235.64C193.57 236.066 194.68 236.413 195.692 236.679L201.232 238.17C202.652 238.543 204.232 239.058 205.972 239.715C207.73 240.372 209.408 241.269 211.006 242.405C212.622 243.524 213.953 244.962 215.001 246.72C216.049 248.478 216.572 250.635 216.572 253.192C216.572 256.139 215.8 258.803 214.255 261.182C212.728 263.561 210.491 265.452 207.544 266.855C204.614 268.257 201.054 268.959 196.864 268.959C192.957 268.959 189.575 268.328 186.716 267.068C183.875 265.807 181.638 264.049 180.005 261.794C178.389 259.539 177.474 256.92 177.261 253.938H184.08C184.257 255.997 184.95 257.702 186.157 259.051C187.382 260.383 188.927 261.377 190.791 262.034C192.673 262.673 194.697 262.993 196.864 262.993C199.385 262.993 201.649 262.585 203.655 261.768C205.662 260.933 207.251 259.779 208.423 258.305C209.594 256.814 210.18 255.074 210.18 253.085C210.18 251.274 209.674 249.8 208.662 248.664C207.65 247.528 206.319 246.604 204.667 245.894C203.016 245.184 201.232 244.562 199.314 244.03L192.602 242.112C188.341 240.887 184.967 239.138 182.482 236.865C179.996 234.593 178.753 231.619 178.753 227.943C178.753 224.889 179.578 222.226 181.23 219.953C182.899 217.663 185.136 215.887 187.941 214.626C190.765 213.348 193.916 212.709 197.396 212.709C200.912 212.709 204.037 213.339 206.771 214.6C209.506 215.843 211.672 217.547 213.27 219.713C214.886 221.88 215.738 224.339 215.827 227.091H209.435ZM238.618 268.959C236.026 268.959 233.673 268.471 231.56 267.494C229.448 266.5 227.77 265.07 226.527 263.206C225.284 261.324 224.662 259.051 224.662 256.388C224.662 254.044 225.124 252.144 226.047 250.688C226.971 249.214 228.205 248.06 229.749 247.226C231.294 246.391 232.999 245.77 234.863 245.362C236.745 244.935 238.636 244.598 240.536 244.349C243.022 244.03 245.037 243.79 246.582 243.63C248.144 243.453 249.281 243.16 249.991 242.751C250.719 242.343 251.083 241.633 251.083 240.621V240.408C251.083 237.78 250.364 235.738 248.926 234.282C247.505 232.826 245.348 232.098 242.454 232.098C239.453 232.098 237.1 232.755 235.396 234.069C233.691 235.383 232.493 236.786 231.8 238.277L225.834 236.146C226.9 233.661 228.32 231.725 230.096 230.34C231.889 228.937 233.842 227.961 235.955 227.411C238.086 226.842 240.181 226.558 242.241 226.558C243.554 226.558 245.064 226.718 246.768 227.038C248.491 227.339 250.151 227.97 251.749 228.929C253.364 229.887 254.705 231.335 255.77 233.27C256.836 235.205 257.368 237.798 257.368 241.047V268H251.083V262.46H250.763C250.337 263.348 249.627 264.298 248.633 265.31C247.638 266.322 246.315 267.183 244.664 267.893C243.013 268.604 240.998 268.959 238.618 268.959ZM239.577 263.312C242.063 263.312 244.158 262.824 245.863 261.848C247.585 260.871 248.881 259.61 249.751 258.066C250.639 256.521 251.083 254.896 251.083 253.192V247.439C250.816 247.759 250.231 248.051 249.325 248.318C248.437 248.566 247.407 248.788 246.236 248.984C245.081 249.161 243.954 249.321 242.853 249.463C241.77 249.587 240.891 249.694 240.216 249.783C238.583 249.996 237.056 250.342 235.635 250.821C234.233 251.283 233.096 251.984 232.226 252.925C231.374 253.849 230.948 255.109 230.948 256.707C230.948 258.891 231.756 260.543 233.372 261.661C235.005 262.762 237.074 263.312 239.577 263.312ZM287.058 227.091V232.418H265.006V227.091H287.058ZM271.611 268V221.445C271.611 219.101 272.161 217.148 273.262 215.585C274.363 214.023 275.792 212.851 277.55 212.07C279.308 211.288 281.163 210.898 283.116 210.898C284.661 210.898 285.922 211.022 286.898 211.271C287.875 211.519 288.603 211.75 289.082 211.963L287.271 217.396C286.952 217.29 286.508 217.157 285.939 216.997C285.389 216.837 284.661 216.757 283.756 216.757C281.678 216.757 280.178 217.281 279.254 218.328C278.349 219.376 277.896 220.912 277.896 222.936V268H271.611ZM306.734 268.959C304.141 268.959 301.789 268.471 299.676 267.494C297.563 266.5 295.885 265.07 294.642 263.206C293.399 261.324 292.778 259.051 292.778 256.388C292.778 254.044 293.239 252.144 294.163 250.688C295.086 249.214 296.32 248.06 297.865 247.226C299.409 246.391 301.114 245.77 302.978 245.362C304.86 244.935 306.751 244.598 308.651 244.349C311.137 244.03 313.152 243.79 314.697 243.63C316.26 243.453 317.396 243.16 318.106 242.751C318.834 242.343 319.198 241.633 319.198 240.621V240.408C319.198 237.78 318.479 235.738 317.041 234.282C315.62 232.826 313.463 232.098 310.569 232.098C307.568 232.098 305.215 232.755 303.511 234.069C301.806 235.383 300.608 236.786 299.915 238.277L293.949 236.146C295.015 233.661 296.435 231.725 298.211 230.34C300.004 228.937 301.957 227.961 304.07 227.411C306.201 226.842 308.296 226.558 310.356 226.558C311.67 226.558 313.179 226.718 314.883 227.038C316.606 227.339 318.266 227.97 319.864 228.929C321.48 229.887 322.82 231.335 323.886 233.27C324.951 235.205 325.484 237.798 325.484 241.047V268H319.198V262.46H318.878C318.452 263.348 317.742 264.298 316.748 265.31C315.753 266.322 314.431 267.183 312.779 267.893C311.128 268.604 309.113 268.959 306.734 268.959ZM307.692 263.312C310.178 263.312 312.273 262.824 313.978 261.848C315.7 260.871 316.996 259.61 317.866 258.066C318.754 256.521 319.198 254.896 319.198 253.192V247.439C318.932 247.759 318.346 248.051 317.44 248.318C316.552 248.566 315.523 248.788 314.351 248.984C313.197 249.161 312.069 249.321 310.968 249.463C309.885 249.587 309.006 249.694 308.332 249.783C306.698 249.996 305.171 250.342 303.751 250.821C302.348 251.283 301.212 251.984 300.342 252.925C299.489 253.849 299.063 255.109 299.063 256.707C299.063 258.891 299.871 260.543 301.487 261.661C303.12 262.762 305.189 263.312 307.692 263.312Z" fill="#C6372E"/>
<path d="M341.537 268.426C340.223 268.426 339.096 267.956 338.154 267.015C337.213 266.074 336.743 264.946 336.743 263.632C336.743 262.318 337.213 261.191 338.154 260.25C339.096 259.309 340.223 258.838 341.537 258.838C342.851 258.838 343.978 259.309 344.919 260.25C345.86 261.191 346.331 262.318 346.331 263.632C346.331 264.502 346.109 265.301 345.665 266.029C345.239 266.757 344.662 267.343 343.934 267.787C343.224 268.213 342.425 268.426 341.537 268.426Z" fill="#CC1414"/>
<path d="M0 0H149.5C226.544 0 289 62.4563 289 139.5V279H139.5C62.4563 279 0 216.544 0 139.5V0Z" fill="url(#paint0_linear_11_11)"/>
<path d="M514.227 448.904L364.778 452.83C287.761 454.853 223.686 394.058 221.663 317.041L218 177.589L367.448 173.663C444.466 171.64 508.54 232.435 510.564 309.452L514.227 448.904Z" fill="url(#paint1_linear_11_11)"/>
<path d="M225 139.5C225 62.4563 287.456 0 364.5 0H514V139.5C514 216.544 451.544 279 374.5 279H225V139.5Z" fill="url(#paint2_linear_11_11)"/>
<path d="M289.201 309.917C289.09 386.961 226.543 449.327 149.5 449.216L4.88758e-06 449L0.201545 309.5C0.312853 232.456 62.8593 170.09 139.903 170.202L289.403 170.418L289.201 309.917Z" fill="url(#paint3_linear_11_11)"/>
<defs>
<linearGradient id="paint0_linear_11_11" x1="144.5" y1="0" x2="144.5" y2="279" gradientUnits="userSpaceOnUse">
<stop/>
<stop offset="1" stop-color="#D9D9D9" stop-opacity="0"/>
</linearGradient>
<linearGradient id="paint1_linear_11_11" x1="369.777" y1="452.698" x2="362.45" y2="173.795" gradientUnits="userSpaceOnUse">
<stop/>
<stop offset="1" stop-color="#D9D9D9" stop-opacity="0"/>
</linearGradient>
<linearGradient id="paint2_linear_11_11" x1="369.5" y1="0" x2="369.5" y2="279" gradientUnits="userSpaceOnUse">
<stop stop-color="#DC4141"/>
<stop offset="1" stop-color="#D9D9D9" stop-opacity="0"/>
</linearGradient>
<linearGradient id="paint3_linear_11_11" x1="144.5" y1="449.208" x2="144.903" y2="170.209" gradientUnits="userSpaceOnUse">
<stop stop-color="#DC4141"/>
<stop offset="1" stop-color="#D9D9D9" stop-opacity="0"/>
</linearGradient>
</defs>
</svg>
