<svg width="243" height="243" viewBox="0 0 243 243" fill="none" xmlns="http://www.w3.org/2000/svg">
<path d="M102.926 226.626C103.082 227.364 103.319 228.037 103.639 228.643C103.951 229.256 104.347 229.791 104.825 230.251C105.297 230.709 105.85 231.08 106.483 231.363C107.117 231.647 107.826 231.831 108.609 231.916C109.894 232.056 111.099 231.851 112.223 231.302C113.347 230.752 114.29 229.866 115.052 228.641C115.814 227.417 116.297 225.865 116.501 223.987C116.706 222.109 116.564 220.49 116.076 219.129C115.588 217.769 114.844 216.698 113.843 215.918C112.842 215.138 111.67 214.674 110.329 214.528C109.086 214.393 107.963 214.539 106.959 214.966C105.948 215.399 105.124 216.074 104.489 216.99C103.845 217.913 103.451 219.039 103.307 220.366L102.521 220.109L109.045 220.819L108.791 223.149L100.53 222.25L100.784 219.92C100.978 218.134 101.528 216.622 102.434 215.384C103.333 214.146 104.49 213.236 105.903 212.654C107.309 212.078 108.873 211.884 110.596 212.071C112.517 212.28 114.155 212.916 115.511 213.978C116.86 215.039 117.85 216.447 118.481 218.201C119.105 219.955 119.292 221.976 119.043 224.264C118.857 225.979 118.459 227.497 117.851 228.817C117.236 230.143 116.452 231.244 115.499 232.119C114.547 232.994 113.463 233.626 112.249 234.016C111.035 234.405 109.733 234.524 108.342 234.373C107.198 234.249 106.151 233.96 105.2 233.506C104.241 233.059 103.408 232.479 102.699 231.766C101.983 231.06 101.411 230.244 100.983 229.319C100.554 228.4 100.298 227.404 100.215 226.331L102.926 226.626Z" fill="#F8E7A1"/>
<path d="M91.6882 207.723C93.1823 208.227 94.3601 208.991 95.2215 210.015C96.0738 211.045 96.5921 212.254 96.7763 213.642C96.9514 215.035 96.7714 216.526 96.2362 218.114C95.701 219.703 94.9399 221.005 93.9529 222.022C92.9569 223.042 91.8227 223.717 90.5505 224.045C89.2692 224.378 87.9286 224.309 86.5286 223.837C85.721 223.565 84.9688 223.161 84.272 222.627C83.5753 222.092 83.0059 221.413 82.5638 220.59C82.1195 219.773 81.8723 218.805 81.822 217.687C81.7717 216.568 81.9904 215.285 82.4779 213.838L82.8181 212.829L94.7714 216.856L94.0775 218.916L84.5471 215.705C84.2523 216.58 84.1643 217.419 84.2829 218.224C84.3949 219.026 84.7036 219.733 85.2092 220.346C85.7081 220.956 86.3883 221.406 87.2498 221.697C88.1988 222.016 89.0993 222.057 89.9513 221.82C90.7943 221.587 91.5267 221.159 92.1486 220.537C92.7705 219.914 93.2254 219.176 93.5135 218.321L93.9761 216.948C94.3707 215.777 94.5033 214.716 94.3738 213.766C94.2354 212.82 93.8742 212.012 93.2901 211.343C92.7039 210.681 91.9295 210.188 90.967 209.864C90.3411 209.653 89.7462 209.55 89.1825 209.555C88.6097 209.564 88.0782 209.685 87.5878 209.917C87.0952 210.155 86.6572 210.51 86.2739 210.98L84.1897 209.559C84.6951 208.859 85.3336 208.31 86.1053 207.911C86.8746 207.518 87.7356 207.298 88.688 207.252C89.6381 207.212 90.6382 207.369 91.6882 207.723Z" fill="#F8E7A1"/>
<path d="M61.6679 211.548L62.7663 209.723L70.0326 214.095L68.9341 215.92L61.6679 211.548ZM64.7951 218.005L62.6408 216.709L70.6817 203.345C71.0478 202.737 71.2342 202.227 71.2408 201.817C71.2376 201.409 71.1272 201.069 70.9095 200.797C70.6821 200.527 70.4101 200.297 70.0937 200.107C69.8564 199.964 69.6543 199.859 69.4875 199.792C69.3171 199.731 69.1807 199.682 69.0784 199.645L69.8047 197.446C69.9837 197.479 70.2205 197.547 70.5151 197.65C70.8134 197.747 71.1634 197.916 71.565 198.157C72.1736 198.524 72.6913 199.013 73.118 199.626C73.5387 200.236 73.7797 200.924 73.8408 201.69C73.8959 202.453 73.6781 203.242 73.1875 204.057L64.7951 218.005Z" fill="#F8E7A1"/>
<path d="M26.4203 183.785L44.4789 171.541L45.9616 173.728L27.903 185.972L26.4203 183.785Z" fill="#F8E7A1"/>
<path d="M28.2188 162.374L37.3635 158.731L38.2941 161.066L23.0926 167.123L22.1936 164.867L24.5688 163.92L24.4899 163.722C23.576 163.674 22.7403 163.38 21.9826 162.841C21.2184 162.304 20.6076 161.462 20.1502 160.314C19.7401 159.285 19.5924 158.3 19.7071 157.36C19.8152 156.422 20.2093 155.569 20.8896 154.801C21.5632 154.036 22.5467 153.396 23.8398 152.88L33.4991 149.032L34.4297 151.367L24.9288 155.153C23.7346 155.629 22.9278 156.309 22.5086 157.195C22.0827 158.084 22.0853 159.069 22.5165 160.151C22.8135 160.896 23.2407 161.498 23.7979 161.957C24.3526 162.409 25.007 162.679 25.7613 162.768C26.5155 162.858 27.3347 162.726 28.2188 162.374Z" fill="#F8E7A1"/>
<path d="M9.61039 123.128L7.27008 123.001L8.15599 106.662L10.4963 106.788L10.1249 113.639L29.5707 114.693L29.4277 117.332L9.98183 116.277L9.61039 123.128Z" fill="#F8E7A1"/>
<path d="M33.0455 96.4799C32.6502 97.9033 31.9647 99.0582 30.9889 99.9445C30.015 100.824 28.8354 101.396 27.4501 101.66C26.0666 101.917 24.5606 101.819 22.9318 101.367C21.2894 100.911 19.9384 100.215 18.8787 99.2799C17.821 98.3375 17.1015 97.2385 16.7205 95.9829C16.3413 94.7203 16.3493 93.3774 16.7445 91.9539C17.1397 90.5305 17.8243 89.3791 18.7982 88.4996C19.774 87.6133 20.957 87.0425 22.3473 86.7872C23.7395 86.5251 25.2567 86.6221 26.8992 87.0781C28.5279 87.5303 29.8677 88.2266 30.9186 89.1671C31.9715 90.1007 32.6875 91.1987 33.0666 92.4612C33.4477 93.7169 33.4407 95.0565 33.0455 96.4799ZM30.8693 95.8757C31.1695 94.7944 31.1393 93.8278 30.7788 92.9759C30.4183 92.124 29.8329 91.4049 29.0227 90.8188C28.2125 90.2327 27.2804 89.7933 26.2265 89.5007C25.1727 89.2081 24.1441 89.1031 23.1408 89.1857C22.1375 89.2683 21.2584 89.5807 20.5034 90.1229C19.7485 90.6652 19.2209 91.4769 18.9207 92.5582C18.6205 93.6394 18.654 94.607 19.0214 95.4608C19.3888 96.3146 19.981 97.0356 20.798 97.6236C21.6151 98.2116 22.5506 98.6519 23.6045 98.9446C24.6583 99.2372 25.6835 99.3412 26.6799 99.2567C27.6764 99.1722 28.5486 98.8579 29.2968 98.3137C30.0449 97.7696 30.569 96.9569 30.8693 95.8757Z" fill="#F8E7A1"/>
<path d="M35.9956 71.3288L27.4491 66.7978L28.6268 64.5765L43.0843 72.2413L41.9066 74.4627L39.4594 73.1652L39.3795 73.3158C39.934 74.0439 40.2789 74.902 40.4142 75.8901C40.5433 76.875 40.3183 77.9133 39.7395 79.0051C39.2604 79.9087 38.6369 80.6071 37.869 81.1003C37.0948 81.5902 36.1997 81.823 35.1836 81.7988C34.1612 81.7712 33.0351 81.4314 31.8052 80.7794L22.6186 75.909L23.7963 73.6877L32.8322 78.4782C33.8864 79.0371 34.8836 79.188 35.8238 78.9308C36.7674 78.6674 37.4837 78.0744 37.9727 77.152C38.2655 76.5998 38.422 75.9634 38.4424 75.2426C38.4661 74.5156 38.2893 73.8029 37.9119 73.1045C37.538 72.3998 36.8992 71.8079 35.9956 71.3288Z" fill="#F8E7A1"/>
<path d="M52.1975 60.8457C51.2044 62.0149 50.0731 62.7872 48.8037 63.1627C47.5343 63.5381 46.222 63.5417 44.8668 63.1734C43.5117 62.8051 42.2116 62.0921 40.9666 61.0346C39.6999 59.9587 38.7798 58.7765 38.2063 57.4879C37.6319 56.1894 37.4278 54.8884 37.5937 53.5849C37.7588 52.2715 38.3196 51.0518 39.276 49.9259C40.0208 49.049 40.8545 48.3966 41.777 47.9688C42.6995 47.541 43.6439 47.3507 44.6102 47.398C45.5764 47.4453 46.4952 47.7459 47.3667 48.2997L45.739 50.2159C45.0465 49.8793 44.2672 49.7765 43.4011 49.9075C42.5343 50.0284 41.7422 50.5111 41.0249 51.3556C40.3904 52.1026 40.0289 52.9231 39.9405 53.8171C39.8512 54.7011 40.0251 55.5989 40.4621 56.5106C40.8983 57.4123 41.5874 58.2632 42.5293 59.0632C43.4928 59.8816 44.4606 60.4427 45.4326 60.7465C46.4092 61.0449 47.3318 61.0832 48.2006 60.8613C49.0739 60.6339 49.8325 60.1414 50.4762 59.3835C50.8992 58.8855 51.1965 58.36 51.3681 57.8069C51.5397 57.2537 51.5827 56.6985 51.497 56.1412C51.4113 55.5838 51.1917 55.0525 50.8381 54.5472L52.4658 52.6309C53.11 53.3645 53.5455 54.1957 53.7723 55.1245C53.9983 56.0433 53.9879 56.999 53.7413 57.9915C53.4937 58.9741 52.9792 59.9255 52.1975 60.8457Z" fill="#F8E7A1"/>
<path d="M56.509 42.372L62.4661 50.2086L60.4646 51.7301L47.2608 34.3608L49.2623 32.8393L54.1106 39.217L54.2802 39.0881C54.0741 38.1832 54.1259 37.3007 54.4357 36.4407C54.7468 35.5708 55.414 34.7469 56.4374 33.9689C57.3251 33.2941 58.2379 32.8812 59.1759 32.7302C60.1096 32.5736 61.0374 32.7203 61.9594 33.1703C62.8827 33.6103 63.7699 34.3901 64.6209 35.5096L70.9133 43.7872L68.9118 45.3087L62.7225 37.1668C61.9359 36.1322 61.0592 35.5363 60.0922 35.3792C59.1266 35.2121 58.1717 35.4875 57.2275 36.2053C56.5716 36.7039 56.0889 37.2894 55.7794 37.9619C55.4754 38.6301 55.3757 39.3438 55.48 40.1031C55.59 40.8581 55.933 41.6144 56.509 42.372Z" fill="#F8E7A1"/>
<path d="M103.989 19.8446L104.493 22.1335L95.1705 24.1855L94.6667 21.8966L103.989 19.8446Z" fill="#F8E7A1"/>
<path d="M151.114 17.9869C151.039 17.236 150.875 16.5418 150.623 15.9045C150.379 15.2617 150.044 14.6862 149.618 14.1778C149.198 13.671 148.689 13.2426 148.09 12.8925C147.49 12.5424 146.806 12.2826 146.036 12.1132C144.774 11.8353 143.554 11.9086 142.377 12.3331C141.2 12.7576 140.166 13.5374 139.277 14.6723C138.387 15.8073 137.739 17.2973 137.333 19.1424C136.927 20.9874 136.893 22.6125 137.23 24.0177C137.568 25.4229 138.193 26.5676 139.104 27.4517C140.014 28.3357 141.129 28.9228 142.447 29.2129C143.667 29.4816 144.8 29.4582 145.844 29.1425C146.896 28.8215 147.788 28.2396 148.519 27.3969C149.258 26.5488 149.771 25.4728 150.058 24.1688L150.812 24.5093L144.403 23.0986L144.907 20.8096L153.023 22.5959L152.519 24.8849C152.132 26.6398 151.422 28.0833 150.387 29.2155C149.36 30.3492 148.112 31.129 146.643 31.5548C145.184 31.9753 143.608 31.9993 141.915 31.6267C140.029 31.2114 138.469 30.4026 137.235 29.2003C136.009 27.9994 135.177 26.4928 134.739 24.6802C134.309 22.8692 134.341 20.8401 134.836 18.5927C135.207 16.9072 135.766 15.4413 136.513 14.1949C137.268 12.9431 138.167 11.9337 139.208 11.1666C140.25 10.3996 141.395 9.88807 142.644 9.63211C143.893 9.37616 145.201 9.39857 146.567 9.69935C147.691 9.94668 148.701 10.3472 149.597 10.9008C150.502 11.449 151.268 12.1157 151.895 12.901C152.53 13.6809 153.011 14.5539 153.336 15.52C153.663 16.4792 153.81 17.4969 153.777 18.5732L151.114 17.9869Z" fill="#F8E7A1"/>
<path d="M160.242 37.9936C158.811 37.3316 157.723 36.4446 156.977 35.3328C156.241 34.2175 155.857 32.9597 155.824 31.5594C155.8 30.1555 156.14 28.693 156.844 27.1718C157.548 25.6506 158.445 24.4381 159.537 23.5343C160.637 22.627 161.838 22.079 163.138 21.8902C164.448 21.6979 165.773 21.912 167.114 22.5323C167.887 22.8901 168.591 23.3724 169.226 23.9792C169.861 24.5859 170.354 25.3225 170.704 26.1889C171.058 27.0489 171.199 28.0376 171.128 29.1551C171.057 30.2727 170.701 31.5244 170.06 32.9102L169.612 33.8771L158.164 28.5808L159.077 26.6083L168.204 30.8311C168.592 29.9931 168.77 29.1679 168.739 28.3553C168.715 27.5458 168.484 26.8092 168.048 26.1456C167.618 25.4849 166.99 24.9638 166.165 24.582C165.256 24.1615 164.366 24.0233 163.493 24.1674C162.63 24.308 161.855 24.654 161.17 25.2055C160.484 25.7569 159.952 26.442 159.573 27.2606L158.965 28.5755C158.446 29.6971 158.2 30.7374 158.226 31.6962C158.261 32.6516 158.533 33.4934 159.041 34.2216C159.552 34.9433 160.269 35.5174 161.19 35.9438C161.79 36.2212 162.37 36.3879 162.931 36.444C163.502 36.4966 164.043 36.4341 164.556 36.2565C165.071 36.0724 165.545 35.7673 165.977 35.3411L167.895 36.9798C167.317 37.6201 166.623 38.0972 165.813 38.4109C165.005 38.7182 164.126 38.8434 163.174 38.7865C162.225 38.7231 161.248 38.4588 160.242 37.9936Z" fill="#F8E7A1"/>
<path d="M190.5 37.4366L189.211 39.1328L182.46 34.0009L183.749 32.3047L190.5 37.4366ZM188.089 30.6794L190.091 32.2009L180.652 44.6172C180.222 45.1826 179.982 45.669 179.931 46.0764C179.89 46.4824 179.963 46.8323 180.15 47.1261C180.347 47.4186 180.593 47.6766 180.887 47.9001C181.107 48.0677 181.297 48.1939 181.455 48.2788C181.618 48.358 181.748 48.4213 181.846 48.4688L180.886 50.5763C180.712 50.524 180.484 50.4309 180.202 50.297C179.916 50.1687 179.586 49.9627 179.213 49.679C178.648 49.2492 178.186 48.7064 177.828 48.0507C177.476 47.3993 177.311 46.6894 177.333 45.921C177.36 45.157 177.662 44.3961 178.238 43.6385L188.089 30.6794Z" fill="#F8E7A1"/>
<path d="M222.539 68.8479L203.263 79.0677L202.025 76.7334L221.302 66.5136L222.539 68.8479Z" fill="#F8E7A1"/>
<path d="M218.436 89.9391L208.951 92.5726L208.279 90.1501L224.046 85.7723L224.696 88.1128L222.232 88.7968L222.289 89.0021C223.192 89.1493 223.991 89.5319 224.686 90.1498C225.388 90.7657 225.904 91.6691 226.235 92.8598C226.531 93.9274 226.572 94.9223 226.356 95.8446C226.147 96.765 225.663 97.5701 224.904 98.2601C224.151 98.9481 223.104 99.4783 221.763 99.8507L211.744 102.632L211.072 100.21L220.926 97.4738C222.165 97.1299 223.041 96.5403 223.553 95.7051C224.073 94.868 224.176 93.8883 223.865 92.766C223.65 91.9927 223.291 91.3481 222.786 90.8321C222.284 90.323 221.662 89.9833 220.922 89.8128C220.182 89.6424 219.353 89.6845 218.436 89.9391Z" fill="#F8E7A1"/>
<path d="M232.692 130.967L235.005 131.346L232.358 147.494L230.045 147.115L231.155 140.345L211.937 137.194L212.365 134.587L231.582 137.738L232.692 130.967Z" fill="#F8E7A1"/>
<path d="M206.514 154.925C207.06 153.553 207.867 152.479 208.933 151.703C209.996 150.934 211.23 150.494 212.636 150.381C214.039 150.275 215.526 150.535 217.096 151.16C218.68 151.791 219.948 152.629 220.9 153.673C221.85 154.725 222.446 155.895 222.689 157.184C222.93 158.481 222.776 159.815 222.23 161.187C221.683 162.56 220.878 163.63 219.815 164.399C218.749 165.175 217.511 165.614 216.101 165.718C214.689 165.828 213.191 165.567 211.607 164.936C210.037 164.311 208.78 163.474 207.837 162.425C206.892 161.383 206.298 160.214 206.058 158.918C205.815 157.629 205.967 156.298 206.514 154.925ZM208.612 155.761C208.196 156.804 208.122 157.768 208.388 158.654C208.654 159.54 209.159 160.318 209.901 160.988C210.643 161.658 211.522 162.196 212.538 162.601C213.554 163.006 214.565 163.221 215.572 163.248C216.578 163.274 217.486 163.058 218.295 162.601C219.104 162.144 219.716 161.394 220.132 160.351C220.547 159.309 220.618 158.343 220.345 157.455C220.072 156.566 219.562 155.785 218.813 155.112C218.064 154.44 217.182 153.901 216.166 153.496C215.15 153.091 214.142 152.877 213.142 152.853C212.142 152.829 211.241 153.047 210.439 153.508C209.636 153.968 209.027 154.719 208.612 155.761Z" fill="#F8E7A1"/>
<path d="M200.861 179.61L208.868 185.038L207.457 187.119L193.913 177.936L195.324 175.855L197.617 177.41L197.712 177.269C197.24 176.485 196.99 175.595 196.962 174.598C196.94 173.605 197.276 172.597 197.969 171.574C198.543 170.727 199.239 170.1 200.055 169.693C200.878 169.29 201.793 169.155 202.801 169.289C203.814 169.427 204.897 169.887 206.049 170.668L214.655 176.503L213.244 178.584L204.779 172.844C203.792 172.175 202.817 171.917 201.854 172.071C200.888 172.231 200.111 172.743 199.525 173.607C199.175 174.124 198.95 174.74 198.852 175.455C198.75 176.175 198.849 176.902 199.148 177.637C199.444 178.379 200.015 179.036 200.861 179.61Z" fill="#F8E7A1"/>
<path d="M183.621 188.28C184.735 187.225 185.943 186.579 187.245 186.343C188.548 186.107 189.853 186.246 191.16 186.758C192.468 187.271 193.683 188.12 194.807 189.306C195.95 190.513 196.736 191.788 197.167 193.131C197.598 194.484 197.66 195.799 197.354 197.077C197.048 198.365 196.359 199.517 195.286 200.533C194.451 201.324 193.552 201.882 192.588 202.208C191.625 202.534 190.665 202.621 189.71 202.469C188.755 202.318 187.874 201.919 187.067 201.275L188.892 199.546C189.544 199.955 190.308 200.142 191.183 200.105C192.058 200.079 192.898 199.684 193.702 198.922C194.414 198.248 194.862 197.472 195.046 196.592C195.231 195.723 195.155 194.812 194.819 193.858C194.483 192.915 193.89 191.994 193.04 191.097C192.171 190.179 191.269 189.517 190.336 189.11C189.397 188.708 188.484 188.57 187.596 188.697C186.703 188.828 185.896 189.236 185.174 189.92C184.7 190.369 184.347 190.859 184.117 191.391C183.887 191.922 183.784 192.469 183.809 193.033C183.834 193.596 183.995 194.148 184.291 194.688L182.466 196.417C181.905 195.619 181.562 194.745 181.437 193.797C181.312 192.859 181.425 191.91 181.778 190.95C182.13 190 182.744 189.11 183.621 188.28Z" fill="#F8E7A1"/>
<path d="M177.338 206.179L172.263 197.744L174.417 196.448L185.665 215.143L183.511 216.439L179.381 209.575L179.198 209.685C179.305 210.607 179.158 211.478 178.757 212.3C178.354 213.131 177.602 213.878 176.5 214.541C175.545 215.116 174.593 215.427 173.644 215.476C172.699 215.531 171.792 215.285 170.924 214.738C170.054 214.2 169.256 213.329 168.531 212.124L163.171 203.215L165.325 201.919L170.598 210.682C171.268 211.796 172.075 212.483 173.019 212.744C173.961 213.014 174.94 212.843 175.956 212.232C176.662 211.807 177.206 211.277 177.586 210.642C177.96 210.011 178.137 209.312 178.115 208.546C178.087 207.784 177.828 206.995 177.338 206.179Z" fill="#F8E7A1"/>
<path d="M127.7 223.441L127.447 221.111L136.936 220.079L137.19 222.409L127.7 223.441Z" fill="#F8E7A1"/>
<path d="M137.458 95.648C137.264 94.8427 136.453 94.3475 135.648 94.5419L122.525 97.7095C121.72 97.9039 121.224 98.7143 121.419 99.5196C121.613 100.325 122.424 100.82 123.229 100.626L134.894 97.8101L137.71 109.475C137.904 110.28 138.714 110.776 139.52 110.581C140.325 110.387 140.82 109.576 140.626 108.771L137.458 95.648ZM104.28 150.782L137.28 96.7822L134.72 95.2178L101.72 149.218L104.28 150.782Z" fill="#F8E7A1"/>
</svg>
